# xmcd CD database file
#
# Track frame offsets:
#	150
#	24167
#	50320
#	78142
#	104152
#	134140
#	164835
#	194690
#	228872
#
# Disc length: 3337 seconds
#
# Revision: 0
# Processed by: cddbd v1.5.2PL0 Copyright (c) Steve Scherf et al.
# Submitted via: CDex 1.70beta2
#
DISCID=790d0709
DTITLE=吸引力和音組、北京室內樂合唱團、中國首席樂隊、北京鄉土和音樂學院二胡組 - 大黃河
DYEAR=2000
DGENRE=New Age
TTITLE0=河水蕩漾 
TTITLE1=源
TTITLE2=大黃河 (獨唱：吳雁澤)
TTITLE3=美人 
TTITLE4=故園 (笛子：戴亞)
TTITLE5=大漠 (嗩吶：郭雅志)
TTITLE6=山色空濛 (獨唱：譚晶  塤：戴亞)
TTITLE7=金黃 (獨唱：吳雁澤)
TTITLE8=岸 (尺八：張維良)
EXTD=YEAR: 2000
EXTT0=
EXTT1=
EXTT2=
EXTT3=
EXTT4=
EXTT5=
EXTT6=
EXTT7=
EXTT8=
PLAYORDER=
